<svg xmlns="http://www.w3.org/2000/svg" xmlns:xlink="http://www.w3.org/1999/xlink" width="1600" height="768" viewBox="0 0 1600 768"><defs><linearGradient id="a" x1="0.5" y1="1" x2="0.5" gradientUnits="objectBoundingBox"><stop offset="0" stop-color="gray" stop-opacity="0.251"/><stop offset="0.54" stop-color="gray" stop-opacity="0.122"/><stop offset="1" stop-color="gray" stop-opacity="0.102"/></linearGradient><linearGradient id="b" x1="0.5" y1="1" x2="0.5" y2="0" xlink:href="#a"/><clipPath id="d"><rect width="1600" height="768"/></clipPath></defs><g id="c" clip-path="url(#d)"><g transform="translate(40.52 359.006)"><ellipse cx="47.717" cy="7.664" rx="47.717" ry="7.664" transform="translate(132.435 367.763)" fill="#57a595" opacity="0.1"/><ellipse cx="59.543" cy="7.664" rx="59.543" ry="7.664" transform="translate(379.99 367.979)" fill="#57a595" opacity="0.1"/><path d="M60.019,396.83h49.7v67.741H63.657c-.122.7-.24,1.4-.367,2.1h46.429V521.3c-.083-.024-.157-.054-.235-.083-1.312-.519-2.615-1.068-3.918-1.655l-.832-.377q-1.959-.926-3.918-1.959c-.455-.24-.911-.49-1.361-.744A81.5,81.5,0,0,1,79.925,501.22c-.166-.162-.323-.333-.49-.49-.793-.862-1.572-1.734-2.326-2.625l-.832-.979c-.891-1.092-1.753-2.213-2.591-3.35-.122-.167-.24-.333-.367-.49a72.908,72.908,0,0,1-8.423-15.23c-.069-.162-.127-.338-.191-.49q-1.009-2.6-1.787-5.24c-.225-.739-.441-1.469-.627-2.238-.069-.225-.127-.446-.181-.666C59.328,458.567,59,447.289,59,436.089v-3.918c0-4.53.054-9.089.132-13.643,0-1.18.049-2.355.073-3.541q.1-4.51.294-9.02c.029-.837.069-1.67.113-2.5a14.174,14.174,0,0,1,.073-1.44C59.8,400.282,59.9,398.554,60.019,396.83Z" transform="translate(-52.996 -231.216)" fill="#57a595" opacity="0.1"/><path d="M134.162,206.905H106.9a206.664,206.664,0,0,1,14.5-19.96c4.05-4.975,8.325-9.823,12.762-14.5Z" transform="translate(-77.439 -116.715)" fill="#57a595" opacity="0.1"/><path d="M110.943,247.09v71.232H61.4c0-.206.034-.416.049-.622.044-.563.088-1.126.137-1.685.054-.656.113-1.317.176-1.959s.132-1.425.206-2.135.142-1.43.225-2.14.157-1.42.245-2.125.166-1.42.26-2.125c.073-.588.152-1.17.23-1.758.113-.828.23-1.66.357-2.483a2.291,2.291,0,0,1,.054-.367,169.387,169.387,0,0,1,3.648-17.884,132.259,132.259,0,0,1,6.146-18.119,136.019,136.019,0,0,1,9.246-17.806Z" transform="translate(-54.221 -154.804)" fill="#57a595" opacity="0.1"/><path d="M186.8,224.239v67.745H292.953V224.239Zm0,69.836v58.177c.607.127,1.21.25,1.807.353.813.157,1.621.3,2.449.421.157.024.318.049.49.064.323.054.656.1.979.142.818.113,1.631.206,2.449.279.387.039.779.073,1.17.1l.945.073h0c.514.039,1.023.069,1.528.083.313,0,.627.029.95.039h3.492c.421,0,.842,0,1.259-.039h.029a6.6,6.6,0,0,0,.877-.039,2.048,2.048,0,0,0,.245,0,5.064,5.064,0,0,0,.725-.034h.171L208,353.57c.539-.049,1.082-.113,1.631-.171l1.117-.132a97.673,97.673,0,0,0,13.442-2.86c9.9-2.762,19.588-6.626,29.485-9.456,12.8-3.648,26.934-5.441,39.3-.979V294.076ZM292.953,148.82V58.632a136.466,136.466,0,0,0-34.49,4.045c-26.88,6.753-51,21.4-71.663,40.107v46.032h5.328v2.091H186.8v71.242H292.953V150.911H214V148.82ZM429.3,118.356a43.969,43.969,0,0,1-19.24-5.592c-11.435-6.219-20.568-15.822-30.773-23.927a141.287,141.287,0,0,0-74.479-29.593V148.82H456.347l.377-.4Zm13.8-2.449,14.637,16.062V111.7c-4.9.607-9.2,2.052-14.618,4.192ZM457.743,366.7V294.076H426.553c-.083-.309-.167-.622-.264-.935.093.313.171.627.26.935H304.828V346.6c1.156.857,2.3,1.758,3.428,2.674h0c1.219.979,2.424,2.013,3.634,3.026l1.219,1.009c.583.49,1.17.979,1.763,1.44q1.763,1.43,3.56,2.821c.593.49,1.2.93,1.8,1.391a245.449,245.449,0,0,0,30.18,19.74q3.541,1.959,7.145,3.825c1.6.818,3.212,1.631,4.828,2.419q3.643,1.778,7.346,3.428h0a269.748,269.748,0,0,0,71.5,20.827q8.222,1.214,16.508,1.91V366.694h.49ZM304.828,150.911v71.237H457.762V150.911Zm0,73.328v67.745H457.762V224.239Zm164.8-112.632v22.614l18.682-20.5q-9.285-1.5-18.682-2.14Zm0,112.656v67.721H618.38V224.239Zm148.2,147.812.524-78H469.633V411.883a266.734,266.734,0,0,0,28.746-.343h.166q6.856-.431,13.648-1.254h.1a251.335,251.335,0,0,0,70.125-18.712m64.641-156.181c-.558-1.317-1.141-2.625-1.734-3.918-1.107-2.449-2.277-4.828-3.482-7.208H630.24v67.716h29.343c-.015-19.177-4.868-38.765-12.507-56.615ZM630.24,294.1v67.089a96.108,96.108,0,0,0,20.279-27.35,94.022,94.022,0,0,0,9.04-39.749Zm0-89.576v17.629h10.519a190.974,190.974,0,0,0-10.5-17.654ZM529.362,124.9c-.774-.294-1.547-.593-2.326-.881a212.343,212.343,0,0,0-25.127-7.551L473.32,147.841h0l-.548.583.367.4h101.75a217.628,217.628,0,0,0-45.513-23.951Zm48.51,26.037H471.719l-2.086,1.91v69.3H618.4V188.579a211.944,211.944,0,0,0-40.513-37.668Z" transform="translate(-118.212 -58.63)" fill="#57a595" opacity="0.1"/><path d="M110.943,320.46v35.3H61.4c0-.206.034-.416.049-.622.044-.563.088-1.126.137-1.685.054-.656.113-1.317.176-1.959s.132-1.425.206-2.135.142-1.43.225-2.14.157-1.42.245-2.125.166-1.42.26-2.125c.073-.588.152-1.17.23-1.758.113-.828.23-1.66.357-2.483a2.29,2.29,0,0,1,.054-.367,169.391,169.391,0,0,1,3.648-17.884Z" transform="translate(-54.221 -192.244)" fill="#57a595" opacity="0.1"/><path d="M60.019,396.83h49.7v67.741H63.657c-.122.7-.24,1.4-.367,2.1h46.429V521.3c-.083-.024-.157-.054-.235-.083-1.312-.519-2.615-1.068-3.918-1.655l-.832-.377q-1.959-.926-3.918-1.959c-.455-.24-.911-.49-1.361-.744A81.5,81.5,0,0,1,79.925,501.22c-.166-.162-.323-.333-.49-.49-.793-.862-1.572-1.734-2.326-2.625l-.832-.979c-.891-1.092-1.753-2.213-2.591-3.35-.122-.167-.24-.333-.367-.49a72.908,72.908,0,0,1-8.423-15.23c-.069-.162-.127-.338-.191-.49q-1.009-2.6-1.787-5.24c-.225-.739-.441-1.469-.627-2.238-.069-.225-.127-.446-.181-.666C59.328,458.567,59,447.289,59,436.089v-3.918c0-4.53.054-9.089.132-13.643,0-1.18.049-2.355.073-3.541q.1-4.51.294-9.02c.029-.837.069-1.67.113-2.5a14.174,14.174,0,0,1,.073-1.44C59.8,400.282,59.9,398.554,60.019,396.83Z" transform="translate(-52.996 -231.216)" fill="#57a595" opacity="0.1"/><path d="M176.929,187.745v61.037H139.56V187.745h5.328V167.08h21.87v20.665Z" transform="translate(-70.972 -85.264)" fill="#57a595" opacity="0.1"/><rect width="37.364" height="67.741" transform="translate(68.593 165.609)" fill="#57a595" opacity="0.1"/><path d="M186.8,539.44h37.369v56.316a97.5,97.5,0,0,1-13.442,2.855l-1.117.137c-.548.064-1.092.117-1.631.171s-1.1.093-1.641.127h-.171c-.235,0-.49.029-.72.034h-.25c-.294,0-.588.029-.881.039h0c-.416.024-.832.029-1.259.034h-3.467l-.945-.034c-.49,0-1.019-.054-1.528-.088h0l-.94-.069-1.17-.108c-.823-.073-1.641-.167-2.449-.279l-.979-.137-.49-.069c-.818-.127-1.626-.264-2.449-.421-.6-.1-1.2-.23-1.807-.353Z" transform="translate(-118.212 -303.989)" fill="#57a595" opacity="0.1"/><rect width="30.812" height="68.24" transform="translate(308.738 95.273)" fill="#57a595" opacity="0.1"/><path d="M533.519,338.19v67.745H380.58V376.715h81.462v17.238H502.7V338.19Z" transform="translate(-193.964 -172.581)" fill="#57a595" opacity="0.1"/><path d="M581.244,611.1h-.49v44.44q-8.276-.7-16.5-1.9a269.761,269.761,0,0,1-71.526-20.871q-9.858-4.437-19.314-9.686a246.453,246.453,0,0,1-30.185-19.74q-3.6-2.762-7.115-5.651c-1.621-1.337-3.232-2.708-4.863-4.04-1.131-.916-2.272-1.817-3.428-2.679v-52.5H549.536c-.083-.313-.167-.627-.255-.935.093.309.181.622.264.935h31.209v72.6C580.921,611.074,581.082,611.088,581.244,611.1Z" transform="translate(-241.204 -303.015)" fill="#57a595" opacity="0.1"/><path d="M883.3,216.943H863.22V210.7h9V192.12q1.17.426,2.331.877V210.7H883.3Z" transform="translate(-463.388 -126.753)" fill="#57a595" opacity="0.1"/><path d="M881.223,318.322H782.655l.034.025-.044-.025H764.36v-68.24h5.181v50.439h23.677V270.65h19.559V247.09h20.078v23.579h19.559v29.872h28.809Z" transform="translate(-412.94 -154.804)" fill="#57a595" opacity="0.1"/><path d="M764.36,396.82v67.745H881.223V396.82ZM912.945,544.309l.162-53.622H881.223v-24H764.36V584.464a266.735,266.735,0,0,0,28.746-.343h.167q6.856-.431,13.648-1.254h.1a251.333,251.333,0,0,0,70.125-18.711" transform="translate(-412.94 -231.211)" fill="#57a595" opacity="0.1"/><path d="M1094.427,539.44h27.262a94.314,94.314,0,0,1-9.045,39.744,96.137,96.137,0,0,1-20.274,27.35V563.44h2.057Z" transform="translate(-580.322 -303.989)" fill="#57a595" opacity="0.1"/><path d="M1123.846,476.164H1096.57V419.55h14.76C1118.969,437.4,1123.822,456.988,1123.846,476.164Z" transform="translate(-582.466 -242.81)" fill="#57a595" opacity="0.1"/><rect width="16.508" height="21.395" transform="translate(323.047 114.244)" fill="#57a595" opacity="0.1"/><rect width="16.508" height="4.926" transform="translate(323.047 158.592)" fill="#57a595" opacity="0.1"/><rect width="16.508" height="14.373" transform="translate(323.047 165.609)" fill="#57a595" opacity="0.1"/><rect width="16.508" height="21.395" transform="translate(323.047 202.939)" fill="#57a595" opacity="0.1"/><rect width="16.508" height="21.395" transform="translate(323.047 247.287)" fill="#57a595" opacity="0.1"/><path d="M722.923,670.59a2.71,2.71,0,0,1,.49.029h-.49v4.97h-16.5V654.17h16.5Z" transform="translate(-383.373 -362.536)" fill="#57a595" opacity="0.1"/><path d="M722.923,744.71v16.527q-8.276-.7-16.5-1.905V744.71Z" transform="translate(-383.373 -408.738)" fill="#57a595" opacity="0.1"/><rect width="70.747" height="1.572" transform="translate(186.616 231.783)" fill="#57a595" opacity="0.1"/><rect width="70.747" height="6.023" transform="translate(186.616 235.446)" fill="#57a595" opacity="0.1"/><rect width="70.747" height="9.686" transform="translate(186.616 261.214)" fill="#57a595" opacity="0.1"/><path d="M502.129,652.15v9.686H446.793q-3.6-2.752-7.12-5.651c-1.621-1.337-3.227-2.708-4.863-4.035Z" transform="translate(-244.771 -361.505)" fill="#57a595" opacity="0.1"/><path d="M546.071,712.225V721.9h-5.842q-9.848-4.442-19.309-9.691Z" transform="translate(-288.713 -392.154)" fill="#57a595" opacity="0.1"/><rect width="13.927" height="13.927" transform="translate(380.171 172.176)" fill="#57a595" opacity="0.1"/><rect width="13.927" height="13.927" transform="translate(78.622 107.286)" fill="#57a595" opacity="0.1"/><rect width="13.927" height="13.927" transform="translate(78.622 139.635)" fill="#57a595" opacity="0.1"/><rect width="13.927" height="13.927" transform="translate(78.622 171.985)" fill="#57a595" opacity="0.1"/><rect width="13.927" height="13.927" transform="translate(78.622 204.33)" fill="#57a595" opacity="0.1"/><rect width="13.927" height="13.927" transform="translate(78.622 236.68)" fill="#57a595" opacity="0.1"/><rect width="13.927" height="13.927" transform="translate(78.622 269.029)" fill="#57a595" opacity="0.1"/><rect width="13.927" height="13.927" transform="translate(433.338 172.176)" fill="#57a595" opacity="0.1"/><rect width="13.927" height="13.927" transform="translate(380.171 206.529)" fill="#57a595" opacity="0.1"/><rect width="13.927" height="13.927" transform="translate(433.338 206.529)" fill="#57a595" opacity="0.1"/><rect width="13.927" height="13.927" transform="translate(380.171 240.876)" fill="#57a595" opacity="0.1"/><rect width="13.927" height="13.927" transform="translate(433.338 240.876)" fill="#57a595" opacity="0.1"/><rect width="13.927" height="13.927" transform="translate(380.171 275.229)" fill="#57a595" opacity="0.1"/><rect width="13.927" height="13.927" transform="translate(433.338 275.229)" fill="#57a595" opacity="0.1"/><rect width="13.927" height="13.927" transform="translate(380.171 309.582)" fill="#57a595" opacity="0.1"/><rect width="13.927" height="13.927" transform="translate(433.338 309.582)" fill="#57a595" opacity="0.1"/><path d="M775.83,711.311V702.33h13.922v7.7Z" transform="translate(-395.659 -358.401)" fill="#57a595" opacity="0.1"/><path d="M65.24,357v7.967H112.9V357Zm4.75,7.468H66.1V357.49H70.02Zm4.745,0H70.818V357.49h3.918Zm4.735,0H75.553V357.49h3.918Zm4.745,0H80.3V357.49h3.918Zm4.74,0H85.039V357.49h3.918Zm4.745,0H89.784V357.49H93.7Zm4.745,0H94.529V357.49h3.918Zm4.74,0H99.269V357.49h3.918Zm4.74,0H104.01V357.49h3.918Zm4.74,0H108.75V357.49h3.918Z" transform="translate(-56.18 -210.891)" fill="#57a595" opacity="0.1"/><path d="M65.24,404.34v7.967H112.9V404.34Zm4.75,7.463H66.1v-6.959H70.02Zm4.745,0H70.818v-6.959h3.918Zm4.735,0H75.553v-6.959h3.918Zm4.745,0H80.3v-6.959h3.918Zm4.74,0H85.039v-6.959h3.918Zm4.745,0H89.784v-6.959H93.7Zm4.745,0H94.529v-6.959h3.918Zm4.74,0H99.269v-6.959h3.918Zm4.74,0H104.01v-6.959h3.918Zm4.74,0H108.75v-6.959h3.918Z" transform="translate(-56.18 -235.048)" fill="#57a595" opacity="0.1"/><path d="M65.24,451.7v7.982H112.9V451.7Zm4.75,7.463H66.1V452.2H70.02Zm4.745,0H70.818V452.2h3.918Zm4.735,0H75.553V452.2h3.918Zm4.745,0H80.3V452.2h3.918Zm4.74,0H85.039V452.2h3.918Zm4.745,0H89.784V452.2H93.7Zm4.745,0H94.529V452.2h3.918Zm4.74,0H99.269V452.2h3.918Zm4.74,0H104.01V452.2h3.918Zm4.74,0H108.75V452.2h3.918Z" transform="translate(-56.18 -259.216)" fill="#57a595" opacity="0.1"/><path d="M65.24,499.06v7.958H112.9V499.06Zm4.75,7.463H66.1v-6.968H70.02Zm4.745,0H70.818v-6.968h3.918Zm4.735,0H75.553v-6.968h3.918Zm4.745,0H80.3v-6.968h3.918Zm4.74,0H85.039v-6.968h3.918Zm4.745,0H89.784v-6.968H93.7Zm4.745,0H94.529v-6.968h3.918Zm4.74,0H99.269v-6.968h3.918Zm4.74,0H104.01v-6.968h3.918Zm4.74,0H108.75v-6.968h3.918Z" transform="translate(-56.18 -283.384)" fill="#57a595" opacity="0.1"/><path d="M65.66,546.41c.191.749.406,1.5.632,2.238v-1.738h3.918v6.964h-2.1c.064.162.127.338.191.49h44.813V546.41Zm9.3,7.463H71.047v-6.964h3.918Zm4.735,0H75.782v-6.964H79.7Zm4.745,0H80.518v-6.964h3.918Zm4.74,0H85.268v-6.964h3.918Zm4.745,0H90.013v-6.964h3.918Zm4.745,0H94.758v-6.964h3.918Zm4.74,0H99.5v-6.964h3.918Zm4.74,0h-3.918v-6.964h3.918Zm4.74,0h-3.918v-6.964H112.9Z" transform="translate(-56.395 -307.546)" fill="#57a595" opacity="0.1"/><path d="M88.26,593.77c.122.157.24.333.367.49h2.591V597.6c.279.333.553.666.837.979V594.24h3.918v6.988H94.386c.157.162.309.333.49.49h29.789V593.77Zm12.443,7.458H96.786v-6.959H100.7Zm4.745,0h-3.918v-6.959h3.918Zm4.745,0h-3.918v-6.959h3.918Zm4.74,0h-3.918v-6.959h3.918Zm4.74,0h-3.918v-6.959h3.918Zm4.74,0H120.5v-6.959h3.918Z" transform="translate(-67.927 -331.714)" fill="#57a595" opacity="0.1"/><path d="M141.65,641.12c.446.255.9.49,1.361.744v-.245h3.918v2.2l.832.387V641.62h3.918v4.236a1.224,1.224,0,0,0,.235.088V641.12Z" transform="translate(-95.172 -355.877)" fill="#57a595" opacity="0.1"/><path d="M493.5,316.123ZM463.335,460.654Zm-31.473-73.539c.093.313.171.627.26.935h0C432.043,387.742,431.959,387.428,431.861,387.115ZM493.5,316.108ZM197.72,242.78v2.091h21.875V242.78ZM463.335,460.654Zm-31.473-73.539c.093.313.171.627.26.935h0C432.043,387.742,431.959,387.428,431.861,387.115ZM493.5,316.108ZM463.335,460.639Zm-31.473-73.524c.093.313.171.627.26.935h0C432.043,387.742,431.959,387.428,431.861,387.115Z" transform="translate(-123.785 -152.605)" fill="#57a595" opacity="0.1"/><path d="M400.034,325.962s-1.929-.269-1.929-3.08a44.034,44.034,0,0,0-1.381-8.06h0c0-.024-1.195-9.143-2.845-10.592s-3.771-9.961-3.771-9.961-.362-4.618-1.1-5.612a47.684,47.684,0,0,1-3.212-6.9c-1.474-3.472-7.62-5.876-7.62-5.876s-11.111-6.445-14.26-8.545h0a4.828,4.828,0,0,1-.8-.6c-.548-.72-2.938-.735-2.938-.735a48.152,48.152,0,0,1-.568-5.029,3.826,3.826,0,0,0-.024-.529,16.944,16.944,0,0,0,7.448-9.216c.059-.186.108-.382.162-.568a1.592,1.592,0,0,0,.955-.862,17.962,17.962,0,0,1,.641-1.959,7.378,7.378,0,0,1,1.812-1.592c1.557-1.322,1.959-3.55,1.885-5.578-.049-1.641-.313-3.3-.211-4.926l.029-.411c.029-.245.064-.49.108-.725.24-1.214.764-2.36,1.058-3.565a4.586,4.586,0,0,0-.362-3.6c-1-1.523-3.095-1.827-4.931-1.983-2.081-.176-3.942.054-5.274-1.675a18.8,18.8,0,0,0-2.1-2.532c-.274-.255-2.938-1.88-2.938-1.988a11.9,11.9,0,0,0-8.3-.637c-1.381.4-2.684,1.058-4.084,1.386-3.021.715-6.5-.059-9.064,1.67a10.654,10.654,0,0,0-3.09,4.055q-.979,1.876-1.988,3.746a24.268,24.268,0,0,0-2.639,6.41,10.176,10.176,0,0,0-.176,1.5h0v.8a2.636,2.636,0,0,0,.029.49c.029.152.024.2.039.3s.039.333.069.49.088.431.147.646c.024.093.059.181.088.269.049.167.108.328.171.49.034.083.069.171.108.255a4.569,4.569,0,0,0,.25.49c.039.069.069.132.108.2a6.5,6.5,0,0,0,.451.656c1.048,1.307,2.591,2.14,3.732,3.364v.548a16.763,16.763,0,0,0,7.63,13.687c0,.186.024.377.034.563a28.028,28.028,0,0,1-.054,4.363,2.057,2.057,0,0,0-1.626-.725,2.347,2.347,0,0,0-.627.054l-.044-.034h0v.044c-1.077.264-2.4,1.386-3.673,4.574,0,0-3.859,4.349-6.8,4.167s-10.377,4.525-10.377,4.525-7.257,4.711-8.815,9.51a67.018,67.018,0,0,1-3.124,7.972l-8.971,18.486h0L295.62,328.24s.916,6.523.735,7.517,3.766,9.961,3.766,9.961,13.041,22.913,18.369,24.088l.382-.269a3.123,3.123,0,0,0,.72.269l1.1-.774a11.954,11.954,0,0,1-.083,2.586c-.735,2.262.274,17.027,1.557,19.921s.828,40.841.828,40.841l-.181,3.35a1.42,1.42,0,0,0,.044.294l-.044.793.132.069a9.431,9.431,0,0,1-.132,3.188,35.449,35.449,0,0,0-.646,5.622s-3.668,23.447-1.929,28.158,3.217,9.872,3.217,9.872,1.836,5.876.088,6.88-6.719,2.688-5.7,5.137c.93,2.262,4.461,8.325,4.985,9.211l-.044.465-.72,7.8a9.794,9.794,0,0,0,.828,2.977,5.13,5.13,0,0,0,5.235,3.271c.49-.034,1.058-.093,1.606-.167a69.409,69.409,0,0,0,11.9-3.095,4.849,4.849,0,0,1-.93-.769h0a2.688,2.688,0,0,1-.818-1.959c.078-1.42-2.581-8.188-3.242-9.853-.1-.24-.157-.377-.157-.377s6.063-6.337,5.054-11.954c0,0-6.709-3.918-4.5-6.067s6.156-8.325,6.156-8.325.181-23.089,0-26.537a28.552,28.552,0,0,1,.338-7.164c.073-.357.162-.705.255-1.048a63.926,63.926,0,0,0,9.226.7c1.126,0,2.272,0,3.428-.069q0,.49.044,1.058c.255,5.72.73,15.749,1.117,19.475.548,5.343,3.58,19.74,3.58,19.74s-5.783,3.712,1.009,12.86c0,0,0,3.315-.451,3.8h0a41.5,41.5,0,0,0-1.161,4.78c-.284,1.724-.4,3.467.059,4.373,1.1,2.164,7.713,1.988,7.713,1.988h0l.162-.029a9.476,9.476,0,0,1,7,2.111c2.512,2.018,12.047,1.131,17.208.49,2.022-.255,3.374-.49,3.374-.49a1.959,1.959,0,0,0,.069-.705h0c-.054-1.268-1.048-4.05-7.786-6.533,0,0-6.337-4.26-6.249-7.972h-.867a6.906,6.906,0,0,1,.877,0s-2.483-9.06-1.469-9.794-2.023-10.773-2.023-10.773-1.738-16.846-1.831-18.026a10.283,10.283,0,0,1,.455-2.987l-.455-9.236s-.088-3.07,0-4.069a20.326,20.326,0,0,0-.211-2.591c-.044-.343-.088-.7-.137-1.053,2.375-.6,3.918-1.161,3.918-1.161l-.274-32.149c2.018-3.918,2.39-12.512,2.38-18.609,0-3.918-.176-6.817-.176-6.817l2.757-4.5s.637-5.387-.372-6.567a1.131,1.131,0,0,1,.122-1.543,5.123,5.123,0,0,1,.6-.411s-.029-.044-.064-.108a4.867,4.867,0,0,1,.612-.436s-.979-1.518-.1-2.16c.823.558,1.557.979,2.116,1.322-.039.357-.078.563-.078.563l.235-.49.867.49s4.319-8.6,4.226-9.872,2.938-6.611,2.938-6.611.367-2.806,2.022-3.981,1.283-9.691,1.283-9.691.46-4.437,1.562-6.249S400.034,325.962,400.034,325.962Zm-82.642-3.776.083,2.052-.842-1.357Z" transform="translate(-173.743 -140.04)" fill="url(#a)"/><path d="M474.921,500.3l-1.058,4.505s-8.472-4.324-10-9.819,2.556-7.581,2.556-7.581l7.894,3.345Z" transform="translate(-259.422 -277.439)" fill="#fff"/><path d="M474.921,500.3l-1.058,4.505s-8.472-4.324-10-9.819,2.556-7.581,2.556-7.581l7.894,3.345Z" transform="translate(-259.422 -277.439)" opacity="0.1"/><path d="M369.737,808.26s-7.835,2.879-13.222,3.242a5.031,5.031,0,0,1-5.137-3.252,9.843,9.843,0,0,1-.808-2.963l.7-7.762.372-4.133,11.444-2.973,1.621,4.956.152.377c.651,1.655,3.261,8.389,3.183,9.794a2.674,2.674,0,0,0,.8,1.934,4.657,4.657,0,0,0,.891.779Z" transform="translate(-201.784 -432.064)" fill="#fff"/><path d="M462.348,803.777a1.96,1.96,0,0,1-.069.7s-16.758,2.8-20.186,0a9.079,9.079,0,0,0-7.052-2.066s-6.484.176-7.566-1.959c-.451-.9-.333-2.635-.054-4.349a41.421,41.421,0,0,1,1.136-4.755l.26-.206,1.543-1.239,18.06-.534h.137c-.088,3.692,6.131,7.928,6.131,7.928C461.3,799.747,462.27,802.514,462.348,803.777Z" transform="translate(-240.875 -431.528)" fill="#fff"/><path d="M462.351,810.794a2,2,0,0,1-.073.7s-16.753,2.8-20.181,0a9.079,9.079,0,0,0-7.047-2.067s-6.489.176-7.566-1.959c-.451-.9-.338-2.635-.059-4.349,2.5.25,6.44.872,7.987,2.355,2.341,2.258,6.307,4.51,8.741,4.686C446.058,810.284,457.454,810.647,462.351,810.794Z" transform="translate(-240.878 -438.545)" opacity="0.1"/><path d="M370.584,826.064s-7.835,2.879-13.222,3.242a5.017,5.017,0,0,1-5.132-3.257c1.993.671,4.76,1.376,6.214.73,1.724-.764,7.835-1.259,11.263-1.469a4.819,4.819,0,0,0,.877.754Z" transform="translate(-202.631 -449.868)" opacity="0.1"/><path d="M365.559,795.753l-.152.167c-6.033-7.3-13.33,1.8-13.33,1.8l-.108-.191.372-4.133,11.444-2.973,1.621,4.956Z" transform="translate(-202.498 -432.064)" opacity="0.1"/><path d="M450.014,789.864s-4.407-.093-6.758,1.983-13.712.451-13.222,0a1.611,1.611,0,0,0,.255-.744l1.543-1.239,18.06-.534C449.96,789.658,450.014,789.864,450.014,789.864Z" transform="translate(-242.326 -431.508)" opacity="0.1"/><path d="M367.872,663.332a13.622,13.622,0,0,0-.744,2.512,28.745,28.745,0,0,0-.338,7.13c.181,3.428,0,26.4,0,26.4s-3.874,6.126-6.033,8.286,4.407,6.038,4.407,6.038c.979,5.583-4.956,11.89-4.956,11.89-6.033-7.3-13.33,1.8-13.33,1.8s-3.967-6.856-4.956-9.3,3.874-4.143,5.583-5.137-.083-6.856-.083-6.856-1.445-5.137-3.159-9.823,1.89-28.016,1.89-28.016a36.151,36.151,0,0,1,.632-5.587,9.343,9.343,0,0,0,.132-3.173c-.029-.357-.064-.656-.088-.857s-.044-.294-.044-.294l.069-.118,2.449-4.564S369.048,660.457,367.872,663.332Z" transform="translate(-197.304 -362.276)" fill="#57a595"/><path d="M444.5,725.084s-4.407-.093-6.758,1.959-13.712.451-13.222,0,.451-3.785.451-3.785c-6.665-9.1-.979-12.791-.979-12.791s-2.977-14.324-3.516-19.637c-.377-3.712-.842-13.687-1.092-19.382-.108-2.448-.171-4.133-.171-4.133l5.445-1.1.7-.142,13.134-2.635s.362,2.449.607,4.451a20.807,20.807,0,0,1,.206,2.581c-.088.979,0,4.045,0,4.045l.446,9.192a10.439,10.439,0,0,0-.446,2.972c.088,1.17,1.8,17.928,1.8,17.928s2.973,10,1.959,10.72S444.5,725.084,444.5,725.084Z" transform="translate(-236.81 -367.266)" fill="#57a595"/><path d="M406.515,296.428a11.112,11.112,0,0,0-.3,4.079,16.772,16.772,0,0,1-17.835-.333A60.371,60.371,0,0,0,387.51,293S407.691,293.446,406.515,296.428Z" transform="translate(-220.634 -178.232)" opacity="0.1"/><path d="M407.335,260.438a16.586,16.586,0,0,1-.823,5.2,16.758,16.758,0,0,1-32.683-4.794v-.4a16.756,16.756,0,1,1,33.513,0Z" transform="translate(-213.653 -153.064)" fill="#cf6f80"/><path d="M399.875,334.446c-6.464-2.512-14.779-10.813-12.7-14.691a8.677,8.677,0,0,0,.808-3.115l8.849,7.272L402.3,328.4l4.162-10.6c.353,2.223.705,3.918.705,3.918s-1.234,1.729-1.959,1.822S409.15,338.025,399.875,334.446Z" transform="translate(-220.296 -190.295)" opacity="0.1"/><path d="M369.192,307.143l-7.39,124.14-9.637.632L327.21,359.933l4.094-85.458.862-18.055,11.1,9.113,5.48,4.491,4.285-10.906,7.967,6.944Z" transform="translate(-166.73 -130.854)" fill="#57a595"/><path d="M373.082,663.372a13.623,13.623,0,0,0-.744,2.512,71.006,71.006,0,0,1-20.205-6.312L352,659.5l.044-.788.025-.411,2.448-4.564S374.257,660.5,373.082,663.372Z" transform="translate(-202.513 -362.316)" opacity="0.1"/><path d="M424.737,673.773a49.588,49.588,0,0,1-5.416.617c-.108-2.448-.171-4.133-.171-4.133l5.445-1.1Z" transform="translate(-236.78 -370.185)" opacity="0.1"/><path d="M445.441,667.941c-3.482.906-8.859,1.925-13.672,1.288l-.069-3.1,13.134-2.635S445.2,665.914,445.441,667.941Z" transform="translate(-243.184 -367.292)" opacity="0.1"/><path d="M365.495,491.966c-20.078,3.428-38.466-6.4-38.466-6.4l.176-3.33s.455-37.751-.808-40.645-2.248-17.571-1.533-19.823-2.61-36.032-2.61-36.032l-.539-13.712L302,364.036l8.815-18.374a66.3,66.3,0,0,0,3.066-7.933c1.533-4.77,8.648-9.456,8.648-9.456s7.3-4.682,10.181-4.505,6.665-4.143,6.665-4.143c2.791-7.115,5.318-3.893,5.318-3.893a6.358,6.358,0,0,1-.137,1.053c-.979,7.811,15.837,32.492,16.077,32.928h0l1.6,39.01,1.621,49.367Z" transform="translate(-176.998 -189.46)" opacity="0.1"/><path d="M364.38,491.935c-20.078,3.428-38.471-6.4-38.471-6.4l.181-3.33s.455-37.751-.813-40.645-2.248-17.571-1.528-19.823-2.61-36.032-2.61-36.032l-.544-13.712-19.725-8.016,8.815-18.374a67.345,67.345,0,0,0,3.065-7.933c1.528-4.77,8.648-9.456,8.648-9.456s7.3-4.682,10.176-4.505,6.665-4.143,6.665-4.143c2.8-7.115,5.876-3.893,5.876-3.893,0,.338-.294.49-.137,1.053,2.155,7.576,15.3,32.492,15.538,32.928h0l1.621,39.01,1.621,49.367Z" transform="translate(-176.422 -189.43)" fill="#fff"/><path d="M400.236,351.946c-2.16-.9-13.6-13.961-13.6-13.961v-2.972c-.416-.979-2.889-.382-4.9.3l.862-18.055.979.813C385.726,325.644,399.986,351.51,400.236,351.946Z" transform="translate(-217.69 -190.612)" opacity="0.1"/><path d="M401.341,349.736c-2.165-.9-13.6-13.961-13.6-13.961V332.8c-.416-.979-2.889-.382-4.9.3l.867-18.055.979.813C386.836,323.434,401.1,349.3,401.341,349.736Z" transform="translate(-218.251 -189.484)" fill="#fff"/><path d="M351.962,517.39c.269,0,13.961-1.44,13.961-1.44s8.291,16.3,7.747,20.269-1.528,7.478-4.863,6.856-17.948.49-17.948.49Z" transform="translate(-201.932 -292.003)" opacity="0.1"/><path d="M350.852,515.18c.269,0,13.961-1.44,13.961-1.44s8.286,16.307,7.747,20.269-1.533,7.478-4.863,6.856-17.948.49-17.948.49Z" transform="translate(-201.365 -290.875)" fill="#fff"/><path d="M365.268,501.05s12.566,6.753,12.835,8.815-6.4-.9-7.835-1.259a17.929,17.929,0,0,0-2.884-.451l-9.6.26Z" transform="translate(-205.463 -284.399)" fill="#cf6f80"/><circle cx="1.322" cy="1.322" r="1.322" transform="translate(177.718 159.532)" opacity="0.1"/><circle cx="1.322" cy="1.322" r="1.322" transform="translate(177.718 158.993)" fill="#3f3d56"/><circle cx="1.322" cy="1.322" r="1.322" transform="translate(180.152 216.768)" opacity="0.1"/><circle cx="1.322" cy="1.322" r="1.322" transform="translate(180.152 216.225)" fill="#3f3d56"/><circle cx="1.322" cy="1.322" r="1.322" transform="translate(179.035 188.15)" opacity="0.1"/><circle cx="1.322" cy="1.322" r="1.322" transform="translate(179.035 187.612)" fill="#3f3d56"/><path d="M451.571,414.909s.9,1.352,0,1.983.088,2.16.088,2.16-2.248,1.317-1.259,2.5.362,6.537.362,6.537l-2.7,4.476s.162,2.884.171,6.782c0,6.082-.357,14.632-2.336,18.53l.274,31.982s-9.466,3.457-17.389,2.4l-1.175-51.321s1.714-29.1,2.346-34.686a58.124,58.124,0,0,0,.451-8.741s-.269-8.736-1.175-12.791c0,0-.979-17.566-1.077-22.428-.044-2.326.078-9.113.215-15.568.152-7.057.323-13.712.323-13.712L426.9,318.879s1.787-.181,2.326.539a5.156,5.156,0,0,0,.784.6h0c3.085,2.086,13.986,8.5,13.986,8.5s6.033,2.4,7.478,5.837a50.871,50.871,0,0,0,3.149,6.856c.7.979,1.082,5.583,1.082,5.583s2.076,8.472,3.7,9.907,2.806,10.563,2.806,10.563l-14.324,11.263s-1.259,18.736-1.528,19.461S451.571,414.909,451.571,414.909Z" transform="translate(-240.735 -191.427)" fill="#fff"/><path d="M452.079,414.747s.9,1.352,0,1.983.083,2.16.083,2.16-2.233,1.332-1.254,2.517.362,6.538.362,6.538l-2.7,4.476s.162,2.884.176,6.782c0,6.082-.358,14.632-2.336,18.53l.269,31.982s-9.481,3.457-17.394,2.4l-1.17-51.321s1.714-29.1,2.346-34.686a57.58,57.58,0,0,0,.446-8.741s-.269-8.736-1.17-12.791c0,0-.979-17.566-1.082-22.428-.044-2.326.083-9.113.215-15.568.152-7.057.323-13.712.323-13.712l-2.36-14.334s2.36,0,2.9.73a4.647,4.647,0,0,0,.784.6h0c3.085,2.086,13.991,8.5,13.991,8.5s6.028,2.4,7.473,5.837a50.052,50.052,0,0,0,3.154,6.856c.705.979,1.077,5.583,1.077,5.583s2.076,8.472,3.7,9.907S462.7,367.1,462.7,367.1l-14.324,11.263s-1.259,18.736-1.533,19.461S452.079,414.747,452.079,414.747Z" transform="translate(-240.699 -191.265)" fill="#fff"/><path d="M435.491,338.149l1.293,3.771-6.807,6.856c.152-7.052.323-13.712.323-13.712l-2.36-14.334s2.36,0,2.9.73a4.467,4.467,0,0,0,.783.6h0l5.788,16.7Z" transform="translate(-241.265 -192.382)" opacity="0.1"/><path d="M434.381,335.939l1.3,3.771-6.807,6.856c.152-7.057.323-13.712.323-13.712L426.83,318.52s2.365,0,2.9.73a4.9,4.9,0,0,0,.784.6h0l5.793,16.694Z" transform="translate(-240.699 -191.255)" fill="#fff"/><path d="M407.335,260.438a16.586,16.586,0,0,1-.823,5.2.7.7,0,0,1-.529-.132c-.127-4.407-2.3-8.545-4.966-12.066a12.676,12.676,0,0,0-2.693-2.791,5.269,5.269,0,0,0-3.653-1.033c-1.469.2-2.767,1.2-4.251,1.327-1.959.162-3.712-1.195-5.656-1.263a5.558,5.558,0,0,0-4.158,1.929,11.4,11.4,0,0,0-2.228,4.133,24.181,24.181,0,0,0-1.244,7.13c-.024,1.371-.157,3.09-1.43,3.59a7.316,7.316,0,0,0-1.846-5.588l-.029-.029v-.4a16.756,16.756,0,1,1,33.513,0Z" transform="translate(-213.653 -153.064)" opacity="0.1"/><path d="M392.188,222.426a11.537,11.537,0,0,0-8.139-.637c-1.356.4-2.635,1.053-4.011,1.381-2.938.71-6.366-.059-8.888,1.66a10.63,10.63,0,0,0-3.026,4.03l-1.959,3.732a24.215,24.215,0,0,0-2.591,6.366,8.128,8.128,0,0,0,1.249,6.572c1.038,1.317,2.571,2.145,3.7,3.384a7.346,7.346,0,0,1,1.841,5.583c1.278-.49,1.4-2.213,1.43-3.585a24.181,24.181,0,0,1,1.244-7.13,11.367,11.367,0,0,1,2.228-4.133,5.568,5.568,0,0,1,4.158-1.929c1.959.069,3.717,1.42,5.656,1.259,1.469-.122,2.772-1.126,4.251-1.322a5.25,5.25,0,0,1,3.653,1.033,12.546,12.546,0,0,1,2.688,2.791c2.674,3.521,4.843,7.649,4.97,12.066.553.406,1.352-.122,1.626-.749a17.9,17.9,0,0,1,.632-1.959,7.223,7.223,0,0,1,1.773-1.577c1.528-1.317,1.91-3.536,1.851-5.548s-.451-4.055-.069-6.033c.23-1.214.749-2.351,1.033-3.55a4.642,4.642,0,0,0-.353-3.58c-.979-1.518-3.041-1.817-4.838-1.959-2.042-.176-3.869.049-5.171-1.67a18.754,18.754,0,0,0-2.057-2.517C394.808,224.15,392.188,222.534,392.188,222.426Z" transform="translate(-208.32 -141.658)" fill="#512e4e"/><path d="M306.5,424.591l-5.117-9.461-1.621,14.6s.9,6.484.72,7.478,3.692,9.907,3.692,9.907,12.8,22.791,18.021,23.966l17.654-12.615-4.682-5.945s-1.621-.632-2.027,0c0,0-8.692-14.956-9.593-16.038a5.4,5.4,0,0,1-.725-3.242s-1.352-1.44-.9-2.791-2.61-6.038-2.61-6.038l2.791-2.61Z" transform="translate(-175.855 -240.554)" opacity="0.1"/><path d="M300.522,412.93l-1.352,1.077-1.621,14.6s.9,6.484.72,7.478,3.7,9.907,3.7,9.907,12.791,22.791,18.016,23.966l17.659-12.615-4.686-5.945s-1.621-.632-2.027,0c0,0-8.692-14.956-9.593-16.038a5.385,5.385,0,0,1-.72-3.242s-1.352-1.44-.9-2.791-2.615-6.038-2.615-6.038l2.791-2.61Z" transform="translate(-174.728 -239.432)" fill="#fff"/><path d="M464.244,520.622c.979,1.19.362,6.533.362,6.533l-2.7,4.476s.162,2.889.171,6.782l-4.544,1.42a2.7,2.7,0,0,1-3.5-2.659l.783-25.273,10.6,4.055c-.9.627.088,2.165.088,2.165S463.255,519.432,464.244,520.622Z" transform="translate(-254.578 -289.936)" opacity="0.1"/><path d="M465.349,519.517c.979,1.19.362,6.537.362,6.537l-2.7,4.476s.162,2.884.176,6.782l-4.628,1.445a2.644,2.644,0,0,1-3.428-2.605l.788-25.352,10.607,4.055c-.906.627.083,2.16.083,2.16S464.369,518.332,465.349,519.517Z" transform="translate(-255.139 -289.375)" fill="#fff"/><path d="M474.332,499.891s-.72,4.6-2.522,4.868-2.61,7.439-4.407,7.184-.607-6.665-.544-7.909-1.959-6.4-.446-7.566,6.3,0,6.3,0Z" transform="translate(-260.611 -281.795)" fill="#cf6f80"/><path d="M476.239,424.546l3.4-6.856a44.509,44.509,0,0,1,1.352,8.016c0,2.791,1.89,3.066,1.89,3.066s2.071,2.449.979,4.231-1.533,6.219-1.533,6.219.357,8.467-1.263,9.637-1.959,3.967-1.959,3.967-2.977,5.313-2.884,6.577-4.143,9.819-4.143,9.819,2.071-10.631-10-15.225c0,0-.093-3.609.808-4.6s2.306-1.44,1.425-6.44-.255-10.974-.255-12.174,2.7-8.682,2.7-8.682Z" transform="translate(-258.684 -241.861)" opacity="0.1"/><path d="M478.775,415.69l2.968.979a44.365,44.365,0,0,1,1.356,8.016c0,2.791,1.89,3.066,1.89,3.066s2.071,2.448.979,4.231-1.528,6.219-1.528,6.219.357,8.467-1.263,9.637-1.983,3.967-1.983,3.967-2.972,5.313-2.879,6.577-4.148,9.819-4.148,9.819,2.076-10.631-10-15.225c0,0-.088-3.609.813-4.6s2.307-1.44,1.425-6.44-.255-10.974-.255-12.174,2.7-8.682,2.7-8.682Z" transform="translate(-259.751 -240.84)" fill="#fff"/><path d="M360.15,776.893s4.731-2.973,7.835-.813S360.15,776.893,360.15,776.893Z" transform="translate(-206.672 -424.345)" opacity="0.1"/><path d="M435.21,759.762a9.576,9.576,0,0,1,7.7,3.247C446.429,766.795,435.21,759.762,435.21,759.762Z" transform="translate(-244.975 -416.406)" opacity="0.1"/><g transform="translate(155.062 90.43)" opacity="0.1"><path d="M411.979,264.067a7.266,7.266,0,0,0-1.778,1.582,17.942,17.942,0,0,0-.627,1.959c-.274.637-1.072,1.156-1.626.754-.127-4.407-2.3-8.545-4.97-12.071a12.545,12.545,0,0,0-2.688-2.791,5.264,5.264,0,0,0-3.658-1.033c-1.469.2-2.762,1.2-4.246,1.322-1.959.166-3.717-1.19-5.661-1.259a5.543,5.543,0,0,0-4.153,1.934,11.341,11.341,0,0,0-2.228,4.128,24.21,24.21,0,0,0-1.244,7.13c-.029,1.366-.157,3.07-1.42,3.58a6.707,6.707,0,0,1,0,1.087c1.273-.49,1.4-2.213,1.43-3.585a24.181,24.181,0,0,1,1.244-7.13,11.365,11.365,0,0,1,2.228-4.133,5.558,5.558,0,0,1,4.153-1.929c1.959.069,3.722,1.42,5.661,1.259,1.469-.122,2.772-1.126,4.246-1.322a5.264,5.264,0,0,1,3.658,1.033,12.547,12.547,0,0,1,2.688,2.791c2.669,3.521,4.843,7.649,4.971,12.066.553.406,1.352-.122,1.626-.749a19,19,0,0,1,.627-1.959,7.246,7.246,0,0,1,1.778-1.577c1.528-1.317,1.91-3.536,1.851-5.548v-.186A6.429,6.429,0,0,1,411.979,264.067Z" transform="translate(-370.679 -247.965)"/><path d="M368.534,267.77c-1.126-1.239-2.664-2.067-3.7-3.379a7.17,7.17,0,0,1-1.425-4.011,7.541,7.541,0,0,0,1.425,5.088c1.033,1.317,2.571,2.145,3.7,3.384a7.345,7.345,0,0,1,1.846,4.368A7.345,7.345,0,0,0,368.534,267.77Z" transform="translate(-363.385 -252.016)"/><path d="M452.217,244.27c-.289,1.2-.8,2.341-1.038,3.55a11.31,11.31,0,0,0-.152,2.449,9.5,9.5,0,0,1,.152-1.391c.235-1.214.749-2.351,1.038-3.55a6.025,6.025,0,0,0,.162-2.027A6.808,6.808,0,0,1,452.217,244.27Z" transform="translate(-408.102 -243.3)"/></g><ellipse cx="47.717" cy="7.664" rx="47.717" ry="7.664" transform="translate(17.527 357.132)" fill="#57a595" opacity="0.1"/><rect width="3.07" height="69.131" transform="translate(63.71 217.983)" fill="#535461"/><path d="M179.1,639.621l-.191,3.114-.274,4.407-.113,1.832-.269,4.407-.118,1.831-.274,4.407L174.768,709.6a8.472,8.472,0,0,1-8.452,7.943H150.224a8.467,8.467,0,0,1-8.447-7.943l-3.08-50.018-.274-4.407-.113-1.832-.274-4.407-.113-1.831-.274-4.407-.2-3.115a4.407,4.407,0,0,1,4.407-4.657h32.913a4.378,4.378,0,0,1,4.329,4.691Z" transform="translate(-93.027 -352.718)" fill="#3f3d56"/><path d="M131.862,592.24l-.274,4.393H90.854l-.274-4.393Z" transform="translate(-45.978 -302.222)" fill="#9d9cb5"/><path d="M131.878,604.95l-.269,4.4H91.644l-.274-4.4Z" transform="translate(-46.381 -308.708)" fill="#9d9cb5"/><path d="M131.894,617.68l-.269,4.393H92.434l-.274-4.393Z" transform="translate(-46.784 -315.204)" fill="#9d9cb5"/><path d="M87.171,542.432C105.05,555.37,112.513,575.6,112.513,575.6s-21.547-.739-39.431-13.677S47.75,528.76,47.75,528.76,69.287,529.495,87.171,542.432Z" transform="translate(-47.255 -298.539)" fill="#57a595"/><path d="M47.72,528.76s22.37,12.414,29.544,22.693S112.5,575.6,112.5,575.6" transform="translate(-47.24 -298.539)" fill="none" stroke="#535461" stroke-miterlimit="10" stroke-width="2"/><path d="M129.459,495.7c9.73,7.037,13.8,18.05,13.8,18.05s-11.728-.4-21.464-7.439S108,488.26,108,488.26,119.723,488.662,129.459,495.7Z" transform="translate(-78.001 -277.872)" fill="#57a595"/><path d="M108,488.26s12.174,6.758,16.077,12.35,19.182,13.144,19.182,13.144" transform="translate(-78.001 -277.872)" fill="none" stroke="#535461" stroke-miterlimit="10" stroke-width="2"/><path d="M194.735,522.34c-11.18,12.287-13.545,28.344-13.545,28.344s15.764-3.869,26.934-16.16,13.545-28.344,13.545-28.344S205.915,510.054,194.735,522.34Z" transform="translate(-115.349 -287.017)" fill="#57a595"/><path d="M221.679,506.19s-14.564,12.6-18.266,21.273-22.223,23.227-22.223,23.227" transform="translate(-115.349 -287.022)" fill="none" stroke="#535461" stroke-miterlimit="10" stroke-width="2"/><path d="M932.379,394.275s-8.085-40.224-4.99-45.229c0,0,.113-4.652-.073-10.582v-.681a15.065,15.065,0,0,0,1.7.979,13.751,13.751,0,0,0,9.255,1.195l-2.448-2.728a4.52,4.52,0,0,1-1.327-2.218,4.648,4.648,0,0,1,.529-2.4c2.326-5.876,2.448-13.266-2.032-17.752-3.785-3.771-4.706-8.638-8.815-12.081-3-2.522-4.652-6.219-6.209-9.794a55.078,55.078,0,0,1-3.4-9.27c-.588-2.5-.823-5.093-1.631-7.537a9.593,9.593,0,0,0-4.686-5.911,17.687,17.687,0,0,1-2.547-1.121,11,11,0,0,1-2.346-2.757c-3.707-4.9-16.121-2.013-22-.024a12.375,12.375,0,0,0-4.349,2.409l.054-.088c.044-.073.1-.147.147-.22a7.728,7.728,0,0,0-1.645,1.836,44.033,44.033,0,0,0-1.929,4.407c-.862,1.738-5.656,6.591-3.594,8.545a1.737,1.737,0,0,0,.49.313,4.236,4.236,0,0,0,2.448.245l-.088.211a14.313,14.313,0,0,0-1.063,5.431,14.7,14.7,0,0,0,14.828,14.569,14.971,14.971,0,0,0,4.54-.7c.034.186.064.372.1.558a1.7,1.7,0,0,0,.034.22h0l-.26.362a.483.483,0,0,0-.044-.064l-7.688,10.744c-1.175.828-7.943,5.725-8.325,9.4-.4,4.02-.8,8.727-.8,8.727l-.054,1.009a3.026,3.026,0,0,1-2.448.661c-2.4-.392-2.4,8.815-2.4,8.815s-1.6,1.469-2.693.2-4,3.041-4,3.041l-18.168.784h0l-.416.024-.979-3.031a1.278,1.278,0,0,0-1.6-.818,1.469,1.469,0,0,0-.22.093l-.068.039-.127.088-.064.059a.987.987,0,0,0-.1.1l-.059.069-.029.029h0a1.234,1.234,0,0,0-.176,1.1l.842,2.6c-3.506.705-7.091,2.693-4.167,8.168l-14.818-2.737,4.794,4.025,24.75,5.108c-.328.588-.113,1.44.911,2.639,4.407,5.176,12.438,6.582,15.67,6.944a27.829,27.829,0,0,0,3.178,5.387l-.279,5.157s-8.183,39.3-9.681,41.3a23.287,23.287,0,0,0,2.071-2.728c-2.375,8.075-5.7,19.128-6.567,20.783-1.4,2.644-2.7,13.344-1.1,14.03a13.433,13.433,0,0,0,3.888-.044v.886l-.088,33.589s.4,20.6-.7,22.565-1.4,6.082-1.4,6.082-4.407,8.124-7.9,11.391a.53.53,0,0,1-.078.069l-.108-.764s-4.2,5.3-13.482,5c0,0-5.588,3.634,2.7,3.829s18.868-.294,18.868-.294,7.39-11.263,13.579-9.794v8.536h1.9v-8.673a7.772,7.772,0,0,0,3.374-5.108,6.21,6.21,0,0,0-2.214-5.744,3.673,3.673,0,0,1-1.209-2.684l-.069.059a5.161,5.161,0,0,0-.064-.529c-.544-4.407-1.224-13.5,1.18-20.23,3.3-9.226,4.295-22.076,1.9-29.725a68.366,68.366,0,0,1-1.9-7.448c-.059-.318-.113-.622-.162-.906a38.6,38.6,0,0,1,4.863.979c5.558,1.533,17.717,1.817,28.1,1.734.024.284.054.583.088.881a32.068,32.068,0,0,0,1.156,6.131c1.3,3.918,1.9,21.189,1.9,21.189s1.68,14.2.764,19.98c-.49,3.212-.979,6.44-1.259,9.681v.064s-2.752,7.835-4.765,12.091c-.049.108-.1.215-.152.318a6.369,6.369,0,0,0-1.572.348s-2.7,5.387-5.387,6.278-1.8,3.825,4.29,2.747,15.279-1.959,15.279-1.959l.4-5.494,1.871-2.341-.49,5.48,1.993-.392-.264-6.665,3.061-3.829s3.7-3.291-1.8-9.765v.142c-.059-.093-.113-.191-.176-.284v-.029c-.911-1.41-1.636-4.04-.308-8.707,2.4-8.433,3.8-16.087,3.8-16.087s5.357-20.5-1.082-30.2h.284a16.31,16.31,0,0,1-1.386-4.309q-.049-.264-.088-.544a35.335,35.335,0,0,0,13.256-3C936.576,450.679,934.279,402.022,932.379,394.275Zm-60.493-33.936v.1l-.979.049Zm-3.359.465a1.081,1.081,0,0,0-.441.211,4.349,4.349,0,0,0-.769,2.013l-1.528-.343s-1.072-.23-2.615-.49l-.73-.735C864.452,361.294,866.538,361.049,868.526,360.8Z" transform="translate(-442.593 -163.276)" fill="url(#b)"/><path d="M971.9,742.51l-.583,6.939,1.954-.392-.294-7.527Z" transform="translate(-495.417 -378.404)" fill="#1d2366"/><path d="M900.956,691.591c-2.355,6.709-1.689,15.763-1.161,20.161.2,1.626.377,2.615.377,2.615s-3.521,8.021-3.815,8.325S886,729.142,886,729.142l-7.037,4.109s-7.14-3.129-3.717-4.207a5.2,5.2,0,0,0,1.846-1.259c3.428-3.257,7.732-11.351,7.732-11.351s.294-4.109,1.371-6.062.686-22.487.686-22.487l.083-33.471V650.05l13.393.1a30.315,30.315,0,0,0,.578,4.407,67.375,67.375,0,0,0,1.866,7.424C905.158,669.614,904.179,682.4,900.956,691.591Z" transform="translate(-469.049 -360.434)" fill="#ffb0b1"/><path d="M900.173,778.675s-3.521,8.021-3.815,8.325S886,793.45,886,793.45l-7.037,4.109s-7.14-3.129-3.717-4.206a5.2,5.2,0,0,0,1.846-1.259l.3,2.14,2.346-.1,20.078-18.065C899.992,777.686,900.173,778.675,900.173,778.675Z" transform="translate(-469.049 -424.741)" opacity="0.1"/><path d="M886.966,777l-20.19,18.188-2.346.1-.49-3.428s-4.1,5.279-13.222,4.985c0,0-5.475,3.619,2.639,3.815s18.477-.294,18.477-.294,7.238-11.263,13.3-9.794v8.506h1.861v-8.585a7.732,7.732,0,0,0,3.3-5.093,6.239,6.239,0,0,0-2.16-5.72A3.687,3.687,0,0,1,886.966,777Z" transform="translate(-456.086 -425.216)" fill="#1d2366"/><path d="M1004.6,701.671c-1.3,4.652-.593,7.272.3,8.677v.029a16.039,16.039,0,0,1,2.341,5.715l.078.441-9.187,13.393-4.985,1.959s-8.016-2.737-6.552-3.521a7.5,7.5,0,0,0,1.6-2.615c1.959-4.236,4.662-12.052,4.662-12.052v-.064c.284-3.227.735-6.444,1.234-9.647.9-5.764-.749-19.911-.749-19.911s-.588-17.2-1.861-21.116a32.294,32.294,0,0,1-1.141-6.092c-.264-2.449-.323-4.466-.323-4.466s5.279-7.346,14.956.588a10.644,10.644,0,0,1,2.022,2.194c6.685,9.51,1.3,30.459,1.3,30.459S1006.946,693.263,1004.6,701.671Z" transform="translate(-526.254 -360.053)" fill="#ffb0b1"/><path d="M1007.348,780.022l-9.187,13.393-4.985,1.959s-8.016-2.737-6.552-3.521a7.5,7.5,0,0,0,1.6-2.615c3.394-.029,5.152,3.2,5.152,3.2l4.3-.686s5.671-11.146,6.944-11.826.2-5.088.2-5.088V773.72c.034.039.064.083.1.122v.029a16.036,16.036,0,0,1,2.341,5.715Z" transform="translate(-526.269 -423.542)" opacity="0.1"/><path d="M986.779,793.026s-2.448-4.5-7.14-2.835c0,0-2.64,5.387-5.279,6.258s-1.758,3.81,4.207,2.737,14.956-1.959,14.956-1.959l.392-5.48,6.063-7.723s3.614-3.276-1.763-9.725v1.121s1.077,4.407-.2,5.088-6.924,11.831-6.924,11.831Z" transform="translate(-519.382 -423.838)" fill="#1d2366"/><path d="M913.548,650.128a30.323,30.323,0,0,0,.578,4.407,61.437,61.437,0,0,0-13.986-.142V650.03Z" transform="translate(-482.228 -360.423)" opacity="0.1"/><path d="M1011.3,656.4s-7.835.382-17.179.46c-.264-2.448-.323-4.466-.323-4.466s5.279-7.346,14.956.588a10.643,10.643,0,0,1,2.023,2.194A11.945,11.945,0,0,0,1011.3,656.4Z" transform="translate(-530.022 -360.048)" opacity="0.1"/><path d="M961.527,615.388s-35.844,5.339-46.3,2.405-26.7-1.725-28.264-2.405,4.377-62.944,5.748-65.584,8.893-29.333,8.893-29.333l7.238-37.736,7.625-2.1.539-.152,13.286-3.663,9.735-2.688s19.358,75.576,17.7,81.149c-.6,2.134-9.637-5.2-.284,6.557S960.877,614.026,961.527,615.388Z" transform="translate(-477.518 -270.662)" fill="#1d2366"/><path d="M872.241,439s-6.856,7.346-1.665,11.439,8.6.392,8.6.392Z" transform="translate(-466.15 -252.735)" fill="#c7daf5"/><path d="M872.241,439s-6.856,7.346-1.665,11.439,8.6.392,8.6.392Z" transform="translate(-466.15 -252.735)" opacity="0.1"/><path d="M970.506,318.667a14.535,14.535,0,0,1-9.735,11.146,50.952,50.952,0,0,0-1.611-6.606s9.535-12.316,9.681-9.823A23.3,23.3,0,0,0,970.506,318.667Z" transform="translate(-512.346 -188.463)" opacity="0.1"/><path d="M941.4,352.188l1.234-1.738s.818,4.985,3.825,2.786,3.154,16.547,3.154,16.547l-3.227,48.25-23.32-1.4.661-23.315,2.64-11.753,6.528-17.086,3.883-5.646Z" transform="translate(-493.929 -207.548)" opacity="0.1"/><path d="M949.632,370.368,946.694,414l-.308,4.623-13-.779-.49-.029-9.794-.588.661-23.32,2.64-11.753,6.528-17.086,3.883-5.646,4.623-6.675,1.234-1.734s.818,4.985,3.825,2.786l.064-.044h0C949.495,351.891,949.632,370.368,949.632,370.368Z" transform="translate(-493.944 -207.834)" fill="#1d2366"/><path d="M899.02,406.26s-1.17,2.449-3.521,2.052-2.346,8.815-2.346,8.815-1.562,1.469-2.64.2-3.918,3.031-3.918,3.031l-17.8.784s7.918,3.619,6.366,14.569c0,0,26.885-1.665,27.766-4.207S899.02,406.26,899.02,406.26Z" transform="translate(-466.235 -236.028)" fill="#fff"/><path d="M899.02,406.26s-1.17,2.449-3.521,2.052-2.346,8.815-2.346,8.815-1.562,1.469-2.64.2-3.918,3.031-3.918,3.031l-17.8.784s7.918,3.619,6.366,14.569c0,0,26.885-1.665,27.766-4.207S899.02,406.26,899.02,406.26Z" transform="translate(-466.235 -236.028)" opacity="0.03"/><path d="M777.66,389.76l4.691,4.006,38.618,8.114-4.789-4.887Z" transform="translate(-396.593 -198.897)" fill="#fff"/><path d="M931.527,352.379c-.641.979-2.478,5.994-4.011,10.372-1.278,3.648-2.346,6.856-2.346,6.856s-2.493,16.229-3.766,19.162-.583,14.373-.583,14.373l-4.745,28.251s-2.15,14.569-5.47,23.271c-3.276,8.565-6.924,12.58-7.037,12.708,1.469-1.988,9.476-41.135,9.476-41.135l2.644-49.372s.387-4.691.779-8.7,8.325-9.486,8.325-9.486l7.649-10.876C933.212,348.828,932.7,350.621,931.527,352.379Z" transform="translate(-483.978 -206.196)" fill="#fff"/><path d="M901.439,475.435s-11.263-.49-16.719-7.042,12.61-2.615,12.61-2.615l4.7,1.077Z" transform="translate(-473.835 -265.801)" fill="#ffb0b1"/><path d="M984.348,495.224a14.269,14.269,0,0,0-.284,6.557c-12.287.872-25.43-2.448-25.43-2.448-2.448,2.253-8.9,5.573-8.9,5.573l-3.516-43.583c-2.248-5.876-3.129-36.664-3.129-36.664s.2-1.611.49-4.025a.465.465,0,0,1,.024-.181c.877-6.743,2.615-19.4,3.467-21.111,1.175-2.351-3.614-8.6-3.614-8.6l2.179-18.584.265-2.243c4.593-2.052,8.114-8.6,8.114-8.6l2.7-4.735h0c2.938-1.885,3.09,16.591,3.09,16.591l-2.938,43.628,9.735-2.688S986.008,489.651,984.348,495.224Z" transform="translate(-504.145 -210.602)" opacity="0.1"/><path d="M997.57,486.073c-13.393,6.65-37.736.49-37.736.49-2.449,2.253-8.9,5.573-8.9,5.573l-3.521-43.583c-2.243-5.876-3.124-36.664-3.124-36.664s2.831-22.972,4.006-25.318a3.772,3.772,0,0,0-.23-2.8,35.445,35.445,0,0,1-2.145-16.4l.94-7.987.26-2.238c4.6-2.057,8.119-8.609,8.119-8.609l2.449-4.29,4.505-7.9,2.135-3.741.362.328,2.767,2.507,2.938,2.449c3.834,3.232,10.46,8.922,13.878,12.4,3.007,3.066,3.957,14.99,4.231,23.966.181,5.911.073,10.543.073,10.543-3.031,4.99,4.9,45.053,4.9,45.053C995.322,437.592,997.57,486.073,997.57,486.073Z" transform="translate(-504.758 -198.439)" fill="#fff"/><path d="M957.645,364.22s-9.192,17.5-8.124,24.147,4.1,14.177,2.64,15.935a5.411,5.411,0,0,1-4.3,2.15c-1.469.1-5.387,2.835-5.387,3.129s-3.619.294-6.856,1.665a42.688,42.688,0,0,1-8.016,2.15s-9.3-.294-10.171.588-1.758,6.156.1,10.362,3.918,7.346,5.475,7.918,11.439-2.737,19.456-3.521,16.718-7.135,16.718-7.135,9.583-3.428,11.263-9.192-2.052-37.443-2.052-37.443S965.563,360.21,957.645,364.22Z" transform="translate(-490.542 -214.223)" opacity="0.03"/><path d="M955.26,361.222s-9.192,17.5-8.114,24.147,4.1,14.177,2.635,15.94a5.387,5.387,0,0,1-4.3,2.15c-1.469.1-5.387,2.835-5.387,3.129s-3.619.294-6.856,1.66a43.108,43.108,0,0,1-8.016,2.15s-9.3-.294-10.166.588-1.763,6.16.1,10.362,3.918,7.346,5.475,7.918,11.439-2.737,19.456-3.516,16.719-7.14,16.719-7.14,9.578-3.428,11.239-9.187-2.052-37.448-2.052-37.448S963.178,357.216,955.26,361.222Z" transform="translate(-489.332 -212.693)" opacity="0.03"/><path d="M957.065,362.427s-9.192,17.5-8.114,24.147,4.1,14.177,2.639,15.935a5.387,5.387,0,0,1-4.3,2.155c-1.469.1-5.387,2.835-5.387,3.124s-3.614.294-6.856,1.665a42.786,42.786,0,0,1-8.016,2.15s-9.3-.294-10.171.588-1.758,6.16.1,10.362,3.918,7.346,5.475,7.918,11.439-2.737,19.456-3.521,16.718-7.135,16.718-7.135,9.583-3.428,11.263-9.192-2.027-37.443-2.027-37.443S964.979,358.441,957.065,362.427Z" transform="translate(-490.251 -213.311)" fill="#fff"/><path d="M994.036,458.545s-7.345-1.469-4.789.979,2.542,4.593,5.671,4.5S994.036,458.545,994.036,458.545Z" transform="translate(-527.423 -262.486)" opacity="0.1"/><path d="M1024.036,566.58s-3.32,2.248,3.031,7.429S1024.036,566.58,1024.036,566.58Z" transform="translate(-545.009 -317.839)" opacity="0.1"/><path d="M1011.851,604.31c0,.294-1.175,10.773,3.222,13.393S1011.851,604.31,1011.851,604.31Z" transform="translate(-539.161 -337.092)" opacity="0.1"/><path d="M860.723,436.59c-3.545.122-11.2,1.2-7.233,8.614,3.511,6.557,9.412,2.174,12.732-1.151a12.512,12.512,0,0,0-5.5-7.463Z" transform="translate(-457.854 -251.505)" fill="#ffb0b1"/><path d="M881.39,451Z" transform="translate(-472.66 -258.859)" fill="#ffb0b1"/><path d="M880.74,451.552l.147-.152Z" transform="translate(-472.328 -259.063)" fill="#ffb0b1"/><path d="M973.075,338.484c-3.761,2.571-6.915,4.74-7.532,5.191-1.685,1.249-4.9,8.58-6.968,12.321-1.65,3.012-7.013,3.785-9.035,3.976l.26-2.238c4.6-2.057,8.119-8.609,8.119-8.609l9.089-15.935,3.129,2.845Z" transform="translate(-507.437 -198.741)" opacity="0.1"/><path d="M973.075,337.884c-3.761,2.571-6.915,4.74-7.532,5.2-1.685,1.244-4.9,8.575-6.968,12.316-1.65,3.012-7.013,3.785-9.035,3.976l.26-2.238c4.6-2.057,8.119-8.609,8.119-8.609l9.089-15.935,3.129,2.835S971.312,336.395,973.075,337.884Z" transform="translate(-507.437 -198.434)" fill="#dce7ff"/><path d="M952.547,302.786A14.525,14.525,0,1,1,940.2,288.428a14.5,14.5,0,0,1,12.347,14.358Z" transform="translate(-494.146 -175.814)" fill="#ffb0b1"/><path d="M978.993,351.633a12.909,12.909,0,0,1-4.686-5.034c-.818-1.616-1.361-3.482-2.757-4.628-1.259-1.028-2.938-1.278-4.505-1.738-5.152-1.523-9.471-6.224-9.632-11.591-.078-2.527.71-5.049.353-7.551a8.365,8.365,0,0,0-1.636-3.893,13.414,13.414,0,0,0-1.415-1.523c-.686-.646-1.405-1.273-2.032-1.959a7.6,7.6,0,0,1-1.028-1.4,6.711,6.711,0,0,1-.563-1.3c-.979-3-.088-6.552-1.166-9.583l-.059-.167a3.118,3.118,0,0,0-2.385-2.238c-1.151-.083-2.135.872-3.232,1.3-2.3.891-4.775-.627-6.689-2.174s-4.074-3.315-6.508-2.973c-1.611.23-2.884,1.327-4.368,1.9a6.126,6.126,0,0,1-1.033.3,14.52,14.52,0,0,1,28,5.411,14.367,14.367,0,0,1-.318,3.031c.024.069.049.132.078.2.568,1.469,1.21,2.977,1.773,4.28l2.767,2.507,2.938,2.449c3.834,3.232,10.46,8.922,13.878,12.4C977.769,330.738,978.709,342.657,978.993,351.633Z" transform="translate(-495.246 -175.814)" opacity="0.1"/><path d="M923.222,276.52c.7-1.425,1.048-3.021,1.885-4.373a10.419,10.419,0,0,1,5.578-3.971c5.754-1.983,17.913-4.863,21.547,0a10.6,10.6,0,0,0,2.3,2.742,17.054,17.054,0,0,0,2.493,1.121c2.316,1.087,3.8,3.457,4.584,5.876s1.023,5.015,1.6,7.507a55.21,55.21,0,0,0,3.33,9.241c1.523,3.555,3.139,7.243,6.077,9.755,4.011,3.428,4.9,8.281,8.619,12.042,4.407,4.466,4.265,11.836,1.993,17.688a4.856,4.856,0,0,0-.519,2.39,4.686,4.686,0,0,0,1.3,2.213l2.409,2.718a13.548,13.548,0,0,1-14.8-6.826c-.818-1.616-1.361-3.477-2.762-4.628-1.254-1.028-2.938-1.273-4.5-1.734-5.152-1.528-9.471-6.234-9.632-11.6-.078-2.522.71-5.044.353-7.541a8.326,8.326,0,0,0-1.641-3.918c-1.347-1.758-3.379-2.938-4.476-4.9-1.856-3.276-.446-7.532-1.783-11.048a3.125,3.125,0,0,0-2.385-2.238c-1.151-.083-2.135.872-3.237,1.3-2.292.891-4.77-.622-6.684-2.174s-4.074-3.315-6.513-2.968c-1.611.225-2.879,1.322-4.363,1.9-1.1.421-3.32.8-4.28-.127C917.678,283.1,922.374,278.263,923.222,276.52Z" transform="translate(-491.955 -164.2)" fill="#591d4b"/><path d="M972.86,337.99c-.823-1.616-1.361-3.477-2.762-4.623-1.254-1.028-2.938-1.278-4.505-1.738-5.147-1.523-9.466-6.229-9.632-11.6-.078-2.522.71-5.049.357-7.546a8.374,8.374,0,0,0-1.64-3.893c-1.352-1.758-3.384-2.938-4.476-4.9-1.856-3.271-.446-7.527-1.787-11.048a3.135,3.135,0,0,0-2.38-2.238c-1.146-.088-2.14.877-3.237,1.3-2.292.891-4.775-.627-6.684-2.174s-4.079-3.315-6.513-2.973c-1.611.23-2.884,1.327-4.363,1.9-1.1.421-3.325.8-4.285-.122-2.018-1.959,2.679-6.782,3.521-8.516a46.9,46.9,0,0,1,1.89-4.373c.044-.073.093-.147.142-.22a7.775,7.775,0,0,0-1.611,1.831,47.589,47.589,0,0,0-1.885,4.373c-.847,1.734-5.543,6.572-3.521,8.516.979.93,3.183.548,4.28.127,1.469-.573,2.752-1.67,4.363-1.9,2.448-.348,4.6,1.42,6.513,2.968s4.407,3.066,6.689,2.174c1.1-.426,2.057-1.386,3.232-1.3a3.118,3.118,0,0,1,2.385,2.238c1.337,3.516-.073,7.772,1.782,11.048,1.1,1.924,3.129,3.129,4.476,4.9a8.323,8.323,0,0,1,1.641,3.918c.358,2.5-.431,5.019-.353,7.541.162,5.387,4.481,10.073,9.632,11.6,1.552.46,3.247.705,4.5,1.734,1.405,1.151,1.959,3.012,2.762,4.628a13.548,13.548,0,0,0,14.8,6.826l-1.136-1.283A13.694,13.694,0,0,1,972.86,337.99Z" transform="translate(-491.845 -169.164)" opacity="0.1"/><path d="M953.028,352.928c-.641.979-2.478,5.994-4.011,10.372-1.435-.558-2.737-4.118-2.737-4.118l7.649-10.881C954.713,349.377,954.2,351.165,953.028,352.928Z" transform="translate(-505.773 -206.451)" opacity="0.1"/><path d="M953.628,352.333c-.641.979-2.478,5.994-4.011,10.372-1.435-.553-2.737-4.118-2.737-4.118l7.649-10.876C955.313,348.782,954.8,350.575,953.628,352.333Z" transform="translate(-506.079 -206.15)" fill="#dce7ff"/><path d="M865.359,443.676,861.118,430.3a1.249,1.249,0,0,1,.813-1.572h0a1.254,1.254,0,0,1,1.567.813l4.241,13.359-.421,2.8Z" transform="translate(-462.285 -247.465)" fill="#be8b87"/><path d="M861.73,429.147h0a1.254,1.254,0,0,1,1.572.813l4.241,13.359-.318,2.1.309.323.421-2.8-4.265-13.359a1.254,1.254,0,0,0-1.567-.813h0a1.254,1.254,0,0,0-.651.49,1.713,1.713,0,0,1,.26-.113Z" transform="translate(-462.495 -247.486)" fill="#fff" opacity="0.1"/><path d="M822.6,399.894l2.38-.754-.348,2.292-.073.5-.7-.725Z" transform="translate(-419.526 -203.683)" fill="#efc8c4"/><path d="M872.42,461.833a.489.489,0,0,1,.152-.127.215.215,0,0,1,.23,0,.607.607,0,0,1,.083.132.421.421,0,0,0,.3.2l-.073.49Z" transform="translate(-468.082 -264.305)" fill="#727a9c"/><path d="M861.13,441.7s8.506-.049,6.5,3.57a7.651,7.651,0,0,1-5.132,4.055Z" transform="translate(-462.321 -254.113)" fill="#ffb0b1"/><path d="M636.492,110.05h-.367a41.886,41.886,0,0,0-34.97,19.142,41.886,41.886,0,0,0-34.97-19.142h-.367a41.625,41.625,0,0,0-41.228,41.6c0,13.619,5.965,32.942,17.6,48.843,22.159,30.3,58.97,56.805,58.97,56.805s36.811-26.5,58.965-56.805c11.635-15.9,17.6-35.224,17.6-48.843a41.625,41.625,0,0,0-41.223-41.6Zm-5.255,92.774a8.252,8.252,0,0,1-7.674-5.3h-8.736a2.762,2.762,0,0,1-2.6-1.88l-2.684-8.085-8.491,29.671a2.747,2.747,0,0,1-2.635,1.983h-.171a2.713,2.713,0,0,1-2.546-2.272l-8.751-52.633-6.4,31.145a2.728,2.728,0,0,1-2.649,2.071H565.6a2.737,2.737,0,1,1,0-5.47h10.152l9.059-41.874a2.747,2.747,0,0,1,5.387.225l8.937,53.691,7.61-26.547a2.693,2.693,0,0,1,2.561-1.959h.054a2.733,2.733,0,0,1,2.6,1.88l4.853,14.6h6.65a8.207,8.207,0,1,1,7.8,10.773Z" transform="translate(-290.586 -84.873)" fill="#57a595"/></g><path d="M1627.278,166.973c-119.805-80.185-207.3,204.235-479.222,379.226S419.79,786.753,539.6,866.938s1087.682,0,1087.682,0S1747.083,247.158,1627.278,166.973Z" fill="#41cfb2" opacity="0.8"/><path d="M1662.472,296.067c-247.448-42.088-335.977,316.385-632.77,343.96S321.972,794.373,576.894,825.068s1037.177-33.6,1037.177-33.6S1909.919,338.154,1662.472,296.067Z" fill="#57a595" opacity="0.78"/><path d="M192.443-16.037C185.321,43.539,132.3-12.264,78.3,45.281S53.587,208.207-23.584,214.14s0-230.177,0-230.177S199.566-75.613,192.443-16.037Z" fill="#67d8c1"/></g></svg>